# xmcd
#
# Track frame offsets:
#	187
#	16944
#	30859
#	47572
#	67907
#	86354
#	104154
#	119674
#	134639
#	153734
#	172419
#	189402
#	210677
#	229384
#	248619
#
# Disc length: 3581 seconds
#
# Revision: 1
# Processed by: cddbd v1.5.1PL0 Copyright (c) Steve Scherf et al.
# Submitted via: CDex 1.50Beta5
#
DISCID=d20dfb0f
DTITLE=Various Artist - NEW MUSIC BEST SELECTION  5
DYEAR=1900
DGENRE=New Age
TTITLE0=荒井由実/あの日にかえりたい
TTITLE1=荒井由実/ルージュの伝言
TTITLE2=荒井由実/中央フリーウェイ
TTITLE3=ハイ・ファイ・セット/フィーリング
TTITLE4=ハイ・ファイ・セット/冷たい雨
TTITLE5=サーカス/Mr.サマータイム
TTITLE6=サーカス/アメリカン・フィーリング
TTITLE7=荒井由実/少しだけ片思い
TTITLE8=荒井由実/卒業写真
TTITLE9=荒井由実/海を見ていた午後
TTITLE10=ブレッド&バター/青い地平線-BLUE HORIZON
TTITLE11=三好鉄生/涙をふいて
TTITLE12=YMO/君に、胸キュン。
TTITLE13=YMO/テクノポリス
TTITLE14=YMO/ライディーン
EXTD=
EXTT0=
EXTT1=
EXTT2=
EXTT3=
EXTT4=
EXTT5=
EXTT6=
EXTT7=
EXTT8=
EXTT9=
EXTT10=
EXTT11=
EXTT12=
EXTT13=
EXTT14=
PLAYORDER=
